<svg id="Layer_1" data-name="Layer 1" xmlns="http://www.w3.org/2000/svg" viewBox="0 0 864 132.5082">
  <g>
    <g id="logoMark">
      <ellipse id="logoMark_PathItem_" data-name="logoMark &lt;PathItem&gt;" cx="115.9159" cy="16.5635" rx="16.5923" ry="16.5635" style="fill: #00d1ff"/>
      <path id="logoMark_PathItem_2" data-name="logoMark &lt;PathItem&gt;" d="M71.1131,50.4164A58.1663,58.1663,0,0,1,32.4655,11.7408,16.5958,16.5958,0,0,0,0,16.5635,16.4754,16.4754,0,0,0,11.7333,32.4017,58.1681,58.1681,0,0,1,50.3814,71.0774a16.5873,16.5873,0,1,0,20.7317-20.661Z" style="fill: #00d1ff"/>
      <path id="logoMark_PathItem_3" data-name="logoMark &lt;PathItem&gt;" d="M120.7754,50.4164A58.1665,58.1665,0,0,1,82.1273,11.7413a16.5874,16.5874,0,1,0-20.7322,20.66,58.1659,58.1659,0,0,1,38.6481,38.6757,16.5873,16.5873,0,1,0,20.7322-20.66Z" style="fill: #00d1ff"/>
      <ellipse id="logoMark_PathItem_4" data-name="logoMark &lt;PathItem&gt;" cx="16.5923" cy="115.9447" rx="16.5923" ry="16.5635" style="fill: #00d1ff"/>
      <path id="logoMark_PathItem_5" data-name="logoMark &lt;PathItem&gt;" d="M71.1131,100.107A58.1664,58.1664,0,0,1,32.4655,61.4313,16.5958,16.5958,0,0,0,0,66.2541,16.4755,16.4755,0,0,0,11.7333,82.0923a58.1682,58.1682,0,0,1,38.6481,38.6756A16.5873,16.5873,0,1,0,71.1131,100.107Z" style="fill: #00d1ff"/>
      <ellipse id="logoMark_PathItem_6" data-name="logoMark &lt;PathItem&gt;" cx="115.9159" cy="115.9447" rx="16.5923" ry="16.5635" style="fill: #00d1ff"/>
    </g>
    <path id="fullLogo" d="M165.6927,106.5965V25.5972h26.42q12.8283,0,22.3431,5.1644a36.9383,36.9383,0,0,1,14.732,14.2426,41.4636,41.4636,0,0,1,5.2188,21.0379,41.8385,41.8385,0,0,1-5.2188,21.0387,36.7,36.7,0,0,1-14.732,14.3512q-9.5156,5.1649-22.3431,5.1645ZM180.4794,93.55h11.96a28.5035,28.5035,0,0,0,14.2973-3.425,24.1335,24.1335,0,0,0,9.4045-9.5675,29.7331,29.7331,0,0,0,3.3707-14.5155,29.66,29.66,0,0,0-3.3707-14.5686,23.8661,23.8661,0,0,0-9.4045-9.46,28.8831,28.8831,0,0,0-14.2973-3.37h-11.96Z" style="fill: #fff"/>
    <path id="fullLogo-2" data-name="fullLogo" d="M240.8146,37.1549V36.0561a7.9974,7.9974,0,0,1,7.9974-7.9975h0a7.9975,7.9975,0,0,1,7.9975,7.9975v1.0988a7.9975,7.9975,0,0,1-7.9975,7.9975h0A7.9974,7.9974,0,0,1,240.8146,37.1549Zm.8759,69.4416V51.6975h14.243v54.899Z" style="fill: #fff"/>
    <path id="fullLogo-3" data-name="fullLogo" d="M294.53,130.5161a33.9437,33.9437,0,0,1-12.2858-2.175,29.2618,29.2618,0,0,1-9.7309-6.0338,22.8416,22.8416,0,0,1-5.9255-9.0789l13.2642-5.0011a12.3256,12.3256,0,0,0,5.1644,6.6866,16.8686,16.8686,0,0,0,9.5136,2.5549,17.1624,17.1624,0,0,0,7.665-1.6308,12.0909,12.0909,0,0,0,5.1645-4.73,14.2852,14.2852,0,0,0,1.8482-7.4473V90.179l2.7182,3.2624a20.2374,20.2374,0,0,1-8.1544,8.0454,24.3885,24.3885,0,0,1-11.6334,2.7174,28.7835,28.7835,0,0,1-14.7867-3.8049,27.1742,27.1742,0,0,1-10.22-10.4377,30.054,30.054,0,0,1-3.6967-14.8953,29.67,29.67,0,0,1,3.6967-14.8946,27.235,27.235,0,0,1,10.1113-10.2751,28.3255,28.3255,0,0,1,14.5689-3.751A23.9153,23.9153,0,0,1,303.5,48.9186a23.34,23.34,0,0,1,8.426,7.9907l-1.9572,3.5884V47.45h13.482v56.21A25.7934,25.7934,0,0,1,319.7,117.4688a26.5359,26.5359,0,0,1-10.22,9.5683A31.0911,31.0911,0,0,1,294.53,130.5161Zm-.6524-39.467a15.4792,15.4792,0,0,0,7.9914-2.0115,14.2906,14.2906,0,0,0,5.3819-5.5992,16.9819,16.9819,0,0,0,1.9568-8.2635,16.7007,16.7007,0,0,0-2.0112-8.2079,14.6675,14.6675,0,0,0-13.3189-7.7741,15.84,15.84,0,0,0-8.0458,2.0654,14.6219,14.6219,0,0,0-5.5991,5.7087,16.6793,16.6793,0,0,0-2.0115,8.2079A16.3775,16.3775,0,0,0,280.233,83.33a14.8262,14.8262,0,0,0,5.5448,5.6539A15.7411,15.7411,0,0,0,293.8779,91.0491Z" style="fill: #fff"/>
    <path id="fullLogo-4" data-name="fullLogo" d="M333.4531,37.9439v-.978a7.1217,7.1217,0,0,1,7.1217-7.1217h0a7.1217,7.1217,0,0,1,7.1217,7.1217v.978a7.1217,7.1217,0,0,1-7.1217,7.1217h0A7.1217,7.1217,0,0,1,333.4531,37.9439Zm0,68.6526V51.6975h14.2434v54.899Z" style="fill: #fff"/>
    <path id="fullLogo-5" data-name="fullLogo" d="M384.553,107.2485q-10.0038,0-15.4935-5.4905-5.4909-5.4883-5.49-15.4926V60.1717H353.35V47.45h1.0866a9.3763,9.3763,0,0,0,6.7414-2.2828q2.39-2.2831,2.3914-6.6327V33.9685h14.2435V47.45H391.403V60.1717H377.8125V85.5039a11.064,11.064,0,0,0,1.0327,5.0019,6.88,6.88,0,0,0,3.2616,3.1529,13.0222,13.0222,0,0,0,5.7078,1.0867,17.3247,17.3247,0,0,0,1.7942-.1087q1.0328-.107,2.0116-.2173v12.1771q-1.5243.2164-3.479.4347A32.8616,32.8616,0,0,1,384.553,107.2485Z" style="fill: #fff"/>
    <path id="fullLogo-6" data-name="fullLogo" d="M416.9521,107.9013a25.9418,25.9418,0,0,1-10.7632-2.0663,15.6476,15.6476,0,0,1-9.5675-14.8945,16.5388,16.5388,0,0,1,8.9155-15.2214,33.7021,33.7021,0,0,1,11.5239-3.6971l19.3532-3.153V79.7413l-16.6349,2.827a12.1384,12.1384,0,0,0-6.3055,2.7183,6.7159,6.7159,0,0,0-2.0654,5.11,5.7768,5.7768,0,0,0,2.3375,4.8377,9.2646,9.2646,0,0,0,5.8161,1.7942,15.9552,15.9552,0,0,0,7.8827-1.9029,13.5473,13.5473,0,0,0,5.3271-5.2731,14.7859,14.7859,0,0,0,1.9029-7.3934V67.2382a8.0378,8.0378,0,0,0-2.99-6.3606,11.7256,11.7256,0,0,0-7.8828-2.5549,13.8809,13.8809,0,0,0-8.1,2.4462,14.1792,14.1792,0,0,0-5.1641,6.4693l-11.6338-5.6539a20.5257,20.5257,0,0,1,5.49-8.0992,27.6294,27.6294,0,0,1,8.8616-5.3819,30.7411,30.7411,0,0,1,11.0892-1.9576,29.3154,29.3154,0,0,1,12.83,2.6636,20.8692,20.8692,0,0,1,8.6435,7.3933,19.6829,19.6829,0,0,1,3.0982,11.0357v39.3583H435.436V96.4857l3.0442-.2182a23.9044,23.9044,0,0,1-5.4365,6.3607,22.95,22.95,0,0,1-7.176,3.9136A27.737,27.737,0,0,1,416.9521,107.9013Z" style="fill: #fff"/>
    <path id="fullLogo-7" data-name="fullLogo" d="M456.8767,106.5965V24.2924H471.12v82.3041Z" style="fill: #fff"/>
    <path id="fullLogo-8" data-name="fullLogo" d="M484.1427,106.5965V25.5972h34.14a31.2363,31.2363,0,0,1,13.7532,2.7722,20.5985,20.5985,0,0,1,8.8068,7.828,22.9667,22.9667,0,0,1,3.099,12.2318,19.4022,19.4022,0,0,1-2.99,10.3829,22.0167,22.0167,0,0,1-9.5128,7.9915v-6.85a27.59,27.59,0,0,1,9.4589,5.6539A18.975,18.975,0,0,1,545.79,73.11a26.7114,26.7114,0,0,1,1.4134,8.6981q0,11.6351-7.6654,18.2109-7.6645,6.58-21.2552,6.578ZM498.93,57.0179h20.1138a9.9547,9.9547,0,0,0,7.2847-2.6635,9.2443,9.2443,0,0,0,2.7183-6.904A8.7174,8.7174,0,0,0,526.328,40.71a10.3426,10.3426,0,0,0-7.2847-2.501H498.93Zm0,36.5322h20.8753q5.7609,0,9.1867-3.2077a11.1351,11.1351,0,0,0,3.425-8.5348,11.3167,11.3167,0,0,0-3.425-8.5895,12.7709,12.7709,0,0,0-9.1867-3.2616H498.93Z" style="fill: #fff"/>
    <path id="fullLogo-9" data-name="fullLogo" d="M554.8131,106.5965V47.45h13.3733V60.6063L567.1,58.6487q2.063-6.6294,6.4685-9.2415a20.4371,20.4371,0,0,1,10.601-2.6088h3.479V59.41h-5.11a13.1186,13.1186,0,0,0-9.7856,3.751q-3.6967,3.7515-3.6963,10.4916v32.9437Z" style="fill: #fff"/>
    <path id="fullLogo-10" data-name="fullLogo" d="M594.1468,33.6969v-.978a7.1217,7.1217,0,0,1,7.1217-7.1217h0a7.1217,7.1217,0,0,1,7.1217,7.1217v.978a7.1216,7.1216,0,0,1-7.1217,7.1216h0A7.1216,7.1216,0,0,1,594.1468,33.6969Zm0,72.9V51.6975H608.39v54.899Z" style="fill: #fff"/>
    <path id="fullLogo-11" data-name="fullLogo" d="M645.7908,107.9013a29.0382,29.0382,0,0,1-15.3308-4.077A29.4239,29.4239,0,0,1,619.805,92.68a31.7709,31.7709,0,0,1-3.9136-15.656A31.3865,31.3865,0,0,1,619.805,61.367a29.9634,29.9634,0,0,1,10.71-11.09,28.62,28.62,0,0,1,15.1675-4.1318,26.2926,26.2926,0,0,1,12.0137,2.6636,20.732,20.732,0,0,1,8.3174,7.4481l-2.1741,2.9356v-34.9h14.2425v82.3041H664.6V95.1809l1.5222,2.8269a19.7358,19.7358,0,0,1-8.4809,7.3386A27.5284,27.5284,0,0,1,645.7908,107.9013Zm1.5222-13.0472a15.64,15.64,0,0,0,14.406-8.5887,21.0835,21.0835,0,0,0,0-18.4291A16.5219,16.5219,0,0,0,638.7235,61.53a16.2525,16.2525,0,0,0-5.9252,6.3059,19.2078,19.2078,0,0,0-2.12,9.1876,19.5254,19.5254,0,0,0,2.12,9.2415,15.7567,15.7567,0,0,0,5.9252,6.3059A16.3643,16.3643,0,0,0,647.313,94.8541Z" style="fill: #fff"/>
    <path id="fullLogo-12" data-name="fullLogo" d="M716.7872,130.5161a33.9472,33.9472,0,0,1-12.2858-2.175,29.27,29.27,0,0,1-9.7309-6.0338,22.8535,22.8535,0,0,1-5.9251-9.0789l13.2646-5.0011a12.32,12.32,0,0,0,5.1645,6.6866,16.8645,16.8645,0,0,0,9.5127,2.5549,17.1654,17.1654,0,0,0,7.6654-1.6308,12.0937,12.0937,0,0,0,5.1645-4.73,14.2814,14.2814,0,0,0,1.8482-7.4473V90.179l2.7182,3.2624a20.2358,20.2358,0,0,1-8.154,8.0454,24.39,24.39,0,0,1-11.6338,2.7174,28.7835,28.7835,0,0,1-14.7867-3.8049,27.178,27.178,0,0,1-10.22-10.4377,30.0633,30.0633,0,0,1-3.6963-14.8953,29.6789,29.6789,0,0,1,3.6963-14.8946A27.239,27.239,0,0,1,699.5,49.8966a28.326,28.326,0,0,1,14.5694-3.751,23.915,23.915,0,0,1,11.6877,2.773,23.3431,23.3431,0,0,1,8.426,7.9907l-1.9568,3.5884V47.45h13.482v56.21a25.7977,25.7977,0,0,1-3.751,13.8079,26.538,26.538,0,0,1-10.22,9.5683A31.0916,31.0916,0,0,1,716.7872,130.5161Zm-.652-39.467a15.4792,15.4792,0,0,0,7.9914-2.0115,14.2941,14.2941,0,0,0,5.3819-5.5992,16.9775,16.9775,0,0,0,1.9568-8.2635,16.6966,16.6966,0,0,0-2.0116-8.2079,14.6651,14.6651,0,0,0-13.3185-7.7741,15.8365,15.8365,0,0,0-8.0453,2.0654,14.6208,14.6208,0,0,0-5.6,5.7087,16.6874,16.6874,0,0,0-2.0107,8.2079A16.3854,16.3854,0,0,0,702.49,83.33a14.83,14.83,0,0,0,5.5452,5.6539A15.7421,15.7421,0,0,0,716.1352,91.0491Z" style="fill: #fff"/>
    <path id="fullLogo-13" data-name="fullLogo" d="M783.7613,107.9013a30.33,30.33,0,0,1-15.9829-4.1317,28.7663,28.7663,0,0,1-10.6549-11.1983,32.48,32.48,0,0,1-3.805-15.6561,31.8629,31.8629,0,0,1,3.86-15.8194,29.0862,29.0862,0,0,1,10.5463-10.9271,28.445,28.445,0,0,1,14.9493-4.0231,30.5716,30.5716,0,0,1,12.2319,2.2836,26.1086,26.1086,0,0,1,8.9694,6.3059,28.2714,28.2714,0,0,1,5.6539,9.1868,31.2,31.2,0,0,1,1.9568,11.1444q0,1.5242-.1626,3.1529a11.77,11.77,0,0,1-.5981,2.8269H765.061V70.1738h37.618l-6.7406,5.1106a16.2008,16.2008,0,0,0-.4894-8.9155,12.7663,12.7663,0,0,0-4.7837-6.1972,13.7437,13.7437,0,0,0-7.9915-2.2836,14.3987,14.3987,0,0,0-7.9367,2.2288A13.7923,13.7923,0,0,0,769.464,66.64a22.6249,22.6249,0,0,0-1.3587,10.3837,19.2033,19.2033,0,0,0,1.4673,9.6222,14.2809,14.2809,0,0,0,5.6539,6.4685,16.29,16.29,0,0,0,8.6435,2.2836,15.8142,15.8142,0,0,0,8.3174-2.0663,14.8842,14.8842,0,0,0,5.3818-5.5444l11.5251,5.6539a20.1591,20.1591,0,0,1-5.4365,7.5012,27.1665,27.1665,0,0,1-8.7521,5.1106A32.2713,32.2713,0,0,1,783.7613,107.9013Z" style="fill: #fff"/>
    <path id="fullLogo-14" data-name="fullLogo" d="M841.4939,107.9013a29.7656,29.7656,0,0,1-16.4714-4.5125A22.9132,22.9132,0,0,1,815.4,91.1578l10.655-5.11a18.73,18.73,0,0,0,6.3606,7.8281,15.5653,15.5653,0,0,0,9.0781,2.8269,9.9882,9.9882,0,0,0,6.1972-1.74,5.4682,5.4682,0,0,0,2.2836-4.5664,4.4439,4.4439,0,0,0-.924-2.8817,7.7405,7.7405,0,0,0-2.501-1.9568,19.4028,19.4028,0,0,0-3.425-1.3595l-9.6762-2.7175q-7.5015-2.1736-11.3617-6.6327a15.5828,15.5828,0,0,1-3.86-10.5463,16.5122,16.5122,0,0,1,2.7722-9.5136,18.4067,18.4067,0,0,1,7.7193-6.36A26.8324,26.8324,0,0,1,840.08,46.1456a27.2559,27.2559,0,0,1,14.7868,4.0231A22.0734,22.0734,0,0,1,864,61.4757l-10.8723,5.1105a13.1228,13.1228,0,0,0-5.11-6.4145,14.1882,14.1882,0,0,0-8.0461-2.3923,8.8864,8.8864,0,0,0-5.6531,1.6308,5.152,5.152,0,0,0-2.0663,4.24,4.6656,4.6656,0,0,0,.87,2.827,6.3352,6.3352,0,0,0,2.4462,1.9568,27.2229,27.2229,0,0,0,3.6423,1.4134l9.4588,2.827q7.2826,2.1762,11.2531,6.5232a15.2332,15.2332,0,0,1,3.9683,10.655,16.1035,16.1035,0,0,1-2.8269,9.4049,18.7568,18.7568,0,0,1-7.828,6.36A28.0538,28.0538,0,0,1,841.4939,107.9013Z" style="fill: #fff"/>
  </g>
</svg>
