<svg id="Layer_1" data-name="Layer 1" xmlns="http://www.w3.org/2000/svg" viewBox="0 0 132.5082 132.5082">
  <g id="logoMark">
    <ellipse id="logoMark_PathItem_" data-name="logoMark &lt;PathItem&gt;" cx="115.9159" cy="16.5635" rx="16.5923" ry="16.5635" style="fill: #00d1ff"/>
    <path id="logoMark_PathItem_2" data-name="logoMark &lt;PathItem&gt;" d="M71.1131,50.4164A58.1663,58.1663,0,0,1,32.4655,11.7408,16.5958,16.5958,0,0,0,0,16.5635,16.4754,16.4754,0,0,0,11.7333,32.4017,58.1681,58.1681,0,0,1,50.3814,71.0774a16.5873,16.5873,0,1,0,20.7317-20.661Z" style="fill: #00d1ff"/>
    <path id="logoMark_PathItem_3" data-name="logoMark &lt;PathItem&gt;" d="M120.7754,50.4164A58.1665,58.1665,0,0,1,82.1273,11.7413a16.5874,16.5874,0,1,0-20.7322,20.66,58.1659,58.1659,0,0,1,38.6481,38.6757,16.5873,16.5873,0,1,0,20.7322-20.66Z" style="fill: #00d1ff"/>
    <ellipse id="logoMark_PathItem_4" data-name="logoMark &lt;PathItem&gt;" cx="16.5923" cy="115.9447" rx="16.5923" ry="16.5635" style="fill: #00d1ff"/>
    <path id="logoMark_PathItem_5" data-name="logoMark &lt;PathItem&gt;" d="M71.1131,100.107A58.1664,58.1664,0,0,1,32.4655,61.4313,16.5958,16.5958,0,0,0,0,66.2541,16.4755,16.4755,0,0,0,11.7333,82.0923a58.1682,58.1682,0,0,1,38.6481,38.6756A16.5873,16.5873,0,1,0,71.1131,100.107Z" style="fill: #00d1ff"/>
    <ellipse id="logoMark_PathItem_6" data-name="logoMark &lt;PathItem&gt;" cx="115.9159" cy="115.9447" rx="16.5923" ry="16.5635" style="fill: #00d1ff"/>
  </g>
</svg>
